<?xml version="1.0" encoding="utf-8"?>
<!-- Generator: Adobe Illustrator 17.1.0, SVG Export Plug-In . SVG Version: 6.00 Build 0)  -->
<!DOCTYPE svg PUBLIC "-//W3C//DTD SVG 1.1//EN" "http://www.w3.org/Graphics/SVG/1.1/DTD/svg11.dtd">
<svg version="1.1" id="Layer_1" xmlns="http://www.w3.org/2000/svg" xmlns:xlink="http://www.w3.org/1999/xlink" x="0px" y="0px"
	 viewBox="0 0 740.3 446.2" enable-background="new 0 0 740.3 446.2" xml:space="preserve">
<g>
	<g>
		<g>
			<defs>
				<path id="SVGID_64_" d="M57.7,432.4l0-7.3c0,1.6,1.2,3.1,3.9,4.6c9.2,5.2,31.9,7.4,50.7,4.9c13.4-1.8,21.2-5.5,21.2-9.4l0,7.3
					c0,3.9-7.8,7.6-21.2,9.4c-18.8,2.5-41.5,0.3-50.7-4.9C58.9,435.6,57.7,434,57.7,432.4z"/>
			</defs>
			<linearGradient id="SVGID_1_" gradientUnits="userSpaceOnUse" x1="126.1692" y1="434.0469" x2="42.3235" y2="434.0469">
				<stop  offset="0" style="stop-color:#EBF1F0"/>
				<stop  offset="0.5054" style="stop-color:#EDF1ED"/>
				<stop  offset="1" style="stop-color:#9CA4AA"/>
			</linearGradient>
			<use xlink:href="#SVGID_64_"  overflow="visible" fill="url(#SVGID_1_)"/>
			<clipPath id="SVGID_2_">
				<use xlink:href="#SVGID_64_"  overflow="visible"/>
			</clipPath>
			<g clip-path="url(#SVGID_2_)" enable-background="new    ">
				<linearGradient id="SVGID_3_" gradientUnits="userSpaceOnUse" x1="126.1692" y1="430.6066" x2="42.3235" y2="430.6066">
					<stop  offset="0" style="stop-color:#EBF1F0"/>
					<stop  offset="0.5054" style="stop-color:#EDF1ED"/>
					<stop  offset="1" style="stop-color:#9CA4AA"/>
				</linearGradient>
				<path fill="url(#SVGID_3_)" d="M57.7,432.4l0-7.3c0,1.2,0.8,2.5,2.4,3.7l0,7.3C58.5,434.9,57.7,433.7,57.7,432.4"/>
				<linearGradient id="SVGID_4_" gradientUnits="userSpaceOnUse" x1="126.1692" y1="433.0376" x2="42.3235" y2="433.0376">
					<stop  offset="0" style="stop-color:#EBF1F0"/>
					<stop  offset="0.5054" style="stop-color:#EDF1ED"/>
					<stop  offset="1" style="stop-color:#9CA4AA"/>
				</linearGradient>
				<path fill="url(#SVGID_4_)" d="M60.1,436.1l0-7.3c0.4,0.3,0.9,0.6,1.5,0.9c0.1,0.1,0.3,0.2,0.4,0.2l0,7.3
					c-0.1-0.1-0.3-0.2-0.4-0.2C61,436.7,60.5,436.4,60.1,436.1"/>
				<linearGradient id="SVGID_5_" gradientUnits="userSpaceOnUse" x1="126.1692" y1="434.0574" x2="42.3235" y2="434.0574">
					<stop  offset="0" style="stop-color:#EBF1F0"/>
					<stop  offset="0.5054" style="stop-color:#EDF1ED"/>
					<stop  offset="1" style="stop-color:#9CA4AA"/>
				</linearGradient>
				<path fill="url(#SVGID_5_)" d="M62,437.3l0-7.3c0.6,0.3,1.2,0.6,1.8,0.9l0,7.3C63.1,437.9,62.5,437.6,62,437.3"/>
				<linearGradient id="SVGID_6_" gradientUnits="userSpaceOnUse" x1="126.1692" y1="434.8593" x2="42.3235" y2="434.8593">
					<stop  offset="0" style="stop-color:#EBF1F0"/>
					<stop  offset="0.5054" style="stop-color:#EDF1ED"/>
					<stop  offset="1" style="stop-color:#9CA4AA"/>
				</linearGradient>
				<path fill="url(#SVGID_6_)" d="M63.8,438.2l0-7.3c0.6,0.3,1.2,0.5,1.8,0.7l0,7.3C65,438.7,64.4,438.4,63.8,438.2"/>
				<linearGradient id="SVGID_7_" gradientUnits="userSpaceOnUse" x1="126.1692" y1="435.5373" x2="42.3235" y2="435.5373">
					<stop  offset="0" style="stop-color:#EBF1F0"/>
					<stop  offset="0.5054" style="stop-color:#EDF1ED"/>
					<stop  offset="1" style="stop-color:#9CA4AA"/>
				</linearGradient>
				<path fill="url(#SVGID_7_)" d="M65.6,438.9l0-7.3c0.6,0.2,1.2,0.4,1.9,0.6l0,7.3C66.9,439.3,66.2,439.1,65.6,438.9"/>
				<linearGradient id="SVGID_8_" gradientUnits="userSpaceOnUse" x1="126.1692" y1="436.1336" x2="42.3235" y2="436.1336">
					<stop  offset="0" style="stop-color:#EBF1F0"/>
					<stop  offset="0.5054" style="stop-color:#EDF1ED"/>
					<stop  offset="1" style="stop-color:#9CA4AA"/>
				</linearGradient>
				<path fill="url(#SVGID_8_)" d="M67.5,439.5l0-7.3c0.6,0.2,1.3,0.4,2,0.6l0,7.3C68.8,439.9,68.2,439.7,67.5,439.5"/>
				<linearGradient id="SVGID_9_" gradientUnits="userSpaceOnUse" x1="126.1692" y1="436.6709" x2="42.3235" y2="436.6709">
					<stop  offset="0" style="stop-color:#EBF1F0"/>
					<stop  offset="0.5054" style="stop-color:#EDF1ED"/>
					<stop  offset="1" style="stop-color:#9CA4AA"/>
				</linearGradient>
				<path fill="url(#SVGID_9_)" d="M69.5,440.1l0-7.3c0.7,0.2,1.4,0.3,2.1,0.5l0,7.3C70.9,440.4,70.2,440.3,69.5,440.1"/>
				<linearGradient id="SVGID_10_" gradientUnits="userSpaceOnUse" x1="126.1692" y1="437.1623" x2="42.3235" y2="437.1623">
					<stop  offset="0" style="stop-color:#EBF1F0"/>
					<stop  offset="0.5054" style="stop-color:#EDF1ED"/>
					<stop  offset="1" style="stop-color:#9CA4AA"/>
				</linearGradient>
				<path fill="url(#SVGID_10_)" d="M71.6,440.6l0-7.3c0.7,0.2,1.5,0.3,2.2,0.5l0,7.3C73.1,440.9,72.3,440.8,71.6,440.6"/>
				<linearGradient id="SVGID_11_" gradientUnits="userSpaceOnUse" x1="126.1692" y1="437.6156" x2="42.3235" y2="437.6156">
					<stop  offset="0" style="stop-color:#EBF1F0"/>
					<stop  offset="0.5054" style="stop-color:#EDF1ED"/>
					<stop  offset="1" style="stop-color:#9CA4AA"/>
				</linearGradient>
				<path fill="url(#SVGID_11_)" d="M73.8,441.1l0-7.3c0.8,0.2,1.6,0.3,2.4,0.4l0,7.3C75.4,441.4,74.6,441.2,73.8,441.1"/>
				<linearGradient id="SVGID_12_" gradientUnits="userSpaceOnUse" x1="126.1692" y1="438.0346" x2="42.3235" y2="438.0346">
					<stop  offset="0" style="stop-color:#EBF1F0"/>
					<stop  offset="0.5054" style="stop-color:#EDF1ED"/>
					<stop  offset="1" style="stop-color:#9CA4AA"/>
				</linearGradient>
				<path fill="url(#SVGID_12_)" d="M76.2,441.5l0-7.3c0.9,0.1,1.8,0.3,2.7,0.4l0,7.3C78,441.8,77.1,441.6,76.2,441.5"/>
				<linearGradient id="SVGID_13_" gradientUnits="userSpaceOnUse" x1="126.1692" y1="438.4198" x2="42.3235" y2="438.4198">
					<stop  offset="0" style="stop-color:#EBF1F0"/>
					<stop  offset="0.5054" style="stop-color:#EDF1ED"/>
					<stop  offset="1" style="stop-color:#9CA4AA"/>
				</linearGradient>
				<path fill="url(#SVGID_13_)" d="M78.9,441.9l0-7.3c1,0.1,2,0.3,3,0.4l0,7.3C80.9,442.2,79.9,442,78.9,441.9"/>
				<linearGradient id="SVGID_14_" gradientUnits="userSpaceOnUse" x1="126.1692" y1="438.7658" x2="42.3235" y2="438.7658">
					<stop  offset="0" style="stop-color:#EBF1F0"/>
					<stop  offset="0.5054" style="stop-color:#EDF1ED"/>
					<stop  offset="1" style="stop-color:#9CA4AA"/>
				</linearGradient>
				<path fill="url(#SVGID_14_)" d="M81.9,442.3l0-7.3c1.1,0.1,2.3,0.2,3.4,0.3l0,7.3C84.2,442.5,83,442.4,81.9,442.3"/>
				<linearGradient id="SVGID_15_" gradientUnits="userSpaceOnUse" x1="126.1692" y1="439.0616" x2="42.3235" y2="439.0616">
					<stop  offset="0" style="stop-color:#EBF1F0"/>
					<stop  offset="0.5054" style="stop-color:#EDF1ED"/>
					<stop  offset="1" style="stop-color:#9CA4AA"/>
				</linearGradient>
				<path fill="url(#SVGID_15_)" d="M85.3,442.6l0-7.3c1.4,0.1,2.8,0.2,4.3,0.3l0,7.3C88.2,442.8,86.7,442.7,85.3,442.6"/>
				<linearGradient id="SVGID_16_" gradientUnits="userSpaceOnUse" x1="126.1692" y1="439.0785" x2="42.3235" y2="439.0785">
					<stop  offset="0" style="stop-color:#EBF1F0"/>
					<stop  offset="0.5054" style="stop-color:#EDF1ED"/>
					<stop  offset="1" style="stop-color:#9CA4AA"/>
				</linearGradient>
				<path fill="url(#SVGID_16_)" d="M89.6,442.9l0-7.3c5.9,0.3,12,0.2,17.9-0.4l0,7.3C101.6,443,95.5,443.1,89.6,442.9"/>
				<linearGradient id="SVGID_17_" gradientUnits="userSpaceOnUse" x1="126.1692" y1="438.5812" x2="42.3235" y2="438.5812">
					<stop  offset="0" style="stop-color:#EBF1F0"/>
					<stop  offset="0.5054" style="stop-color:#EDF1ED"/>
					<stop  offset="1" style="stop-color:#9CA4AA"/>
				</linearGradient>
				<path fill="url(#SVGID_17_)" d="M107.5,442.5l0-7.3c1.5-0.1,2.9-0.3,4.3-0.5l0,7.3C110.4,442.2,108.9,442.4,107.5,442.5"/>
				<linearGradient id="SVGID_18_" gradientUnits="userSpaceOnUse" x1="126.1692" y1="438.0955" x2="42.3235" y2="438.0955">
					<stop  offset="0" style="stop-color:#EBF1F0"/>
					<stop  offset="0.5054" style="stop-color:#EDF1ED"/>
					<stop  offset="1" style="stop-color:#9CA4AA"/>
				</linearGradient>
				<path fill="url(#SVGID_18_)" d="M111.8,442l0-7.3c0.1,0,0.3,0,0.4-0.1c1-0.1,2-0.3,2.9-0.4l0,7.3c-0.9,0.2-1.9,0.3-2.9,0.4
					C112.1,442,111.9,442,111.8,442"/>
				<linearGradient id="SVGID_19_" gradientUnits="userSpaceOnUse" x1="126.1692" y1="437.5987" x2="42.3235" y2="437.5987">
					<stop  offset="0" style="stop-color:#EBF1F0"/>
					<stop  offset="0.5054" style="stop-color:#EDF1ED"/>
					<stop  offset="1" style="stop-color:#9CA4AA"/>
				</linearGradient>
				<path fill="url(#SVGID_19_)" d="M115.2,441.5l0-7.3c0.9-0.2,1.9-0.3,2.7-0.5l0,7.3C117,441.2,116.1,441.4,115.2,441.5"/>
				<linearGradient id="SVGID_20_" gradientUnits="userSpaceOnUse" x1="126.1692" y1="437.0911" x2="42.3235" y2="437.0911">
					<stop  offset="0" style="stop-color:#EBF1F0"/>
					<stop  offset="0.5054" style="stop-color:#EDF1ED"/>
					<stop  offset="1" style="stop-color:#9CA4AA"/>
				</linearGradient>
				<path fill="url(#SVGID_20_)" d="M117.9,441l0-7.3c0.8-0.2,1.6-0.3,2.4-0.5l0,7.3C119.5,440.7,118.7,440.8,117.9,441"/>
				<linearGradient id="SVGID_21_" gradientUnits="userSpaceOnUse" x1="126.1692" y1="436.5656" x2="42.3235" y2="436.5656">
					<stop  offset="0" style="stop-color:#EBF1F0"/>
					<stop  offset="0.5054" style="stop-color:#EDF1ED"/>
					<stop  offset="1" style="stop-color:#9CA4AA"/>
				</linearGradient>
				<path fill="url(#SVGID_21_)" d="M120.2,440.5l0-7.3c0.7-0.2,1.4-0.4,2.1-0.5l0,7.3C121.7,440.1,121,440.3,120.2,440.5"/>
				<linearGradient id="SVGID_22_" gradientUnits="userSpaceOnUse" x1="126.1692" y1="436.017" x2="42.3235" y2="436.017">
					<stop  offset="0" style="stop-color:#EBF1F0"/>
					<stop  offset="0.5054" style="stop-color:#EDF1ED"/>
					<stop  offset="1" style="stop-color:#9CA4AA"/>
				</linearGradient>
				<path fill="url(#SVGID_22_)" d="M122.3,440l0-7.3c0.7-0.2,1.3-0.4,1.9-0.6l0,7.3C123.6,439.6,123,439.8,122.3,440"/>
				<linearGradient id="SVGID_23_" gradientUnits="userSpaceOnUse" x1="126.1692" y1="435.4371" x2="42.3235" y2="435.4371">
					<stop  offset="0" style="stop-color:#EBF1F0"/>
					<stop  offset="0.5054" style="stop-color:#EDF1ED"/>
					<stop  offset="1" style="stop-color:#9CA4AA"/>
				</linearGradient>
				<path fill="url(#SVGID_23_)" d="M124.2,439.4l0-7.3c0.6-0.2,1.2-0.4,1.7-0.6l0,7.3C125.4,439,124.8,439.2,124.2,439.4"/>
				<linearGradient id="SVGID_24_" gradientUnits="userSpaceOnUse" x1="126.1692" y1="434.8151" x2="42.3235" y2="434.8151">
					<stop  offset="0" style="stop-color:#EBF1F0"/>
					<stop  offset="0.5054" style="stop-color:#EDF1ED"/>
					<stop  offset="1" style="stop-color:#9CA4AA"/>
				</linearGradient>
				<path fill="url(#SVGID_24_)" d="M126,438.8l0-7.3c0.6-0.2,1.1-0.4,1.6-0.6l0,7.3C127.1,438.4,126.5,438.6,126,438.8"/>
				<linearGradient id="SVGID_25_" gradientUnits="userSpaceOnUse" x1="126.1692" y1="434.137" x2="42.3235" y2="434.137">
					<stop  offset="0" style="stop-color:#EBF1F0"/>
					<stop  offset="0.5054" style="stop-color:#EDF1ED"/>
					<stop  offset="1" style="stop-color:#9CA4AA"/>
				</linearGradient>
				<path fill="url(#SVGID_25_)" d="M127.6,438.2l0-7.3c0.5-0.2,1-0.5,1.5-0.7l0,7.3C128.6,437.7,128.1,437.9,127.6,438.2"/>
				<linearGradient id="SVGID_26_" gradientUnits="userSpaceOnUse" x1="126.1692" y1="433.3805" x2="42.3235" y2="433.3805">
					<stop  offset="0" style="stop-color:#EBF1F0"/>
					<stop  offset="0.5054" style="stop-color:#EDF1ED"/>
					<stop  offset="1" style="stop-color:#9CA4AA"/>
				</linearGradient>
				<path fill="url(#SVGID_26_)" d="M129,437.4l0-7.3c0.5-0.3,1-0.5,1.4-0.8l0,7.3C130,436.9,129.5,437.2,129,437.4"/>
				<linearGradient id="SVGID_27_" gradientUnits="userSpaceOnUse" x1="126.1692" y1="432.5024" x2="42.3235" y2="432.5024">
					<stop  offset="0" style="stop-color:#EBF1F0"/>
					<stop  offset="0.5054" style="stop-color:#EDF1ED"/>
					<stop  offset="1" style="stop-color:#9CA4AA"/>
				</linearGradient>
				<path fill="url(#SVGID_27_)" d="M130.4,436.6l0-7.3c0.5-0.3,0.9-0.6,1.3-1l0,7.3C131.3,436,130.9,436.3,130.4,436.6"/>
				<linearGradient id="SVGID_28_" gradientUnits="userSpaceOnUse" x1="126.1692" y1="431.4198" x2="42.3235" y2="431.4198">
					<stop  offset="0" style="stop-color:#EBF1F0"/>
					<stop  offset="0.5054" style="stop-color:#EDF1ED"/>
					<stop  offset="1" style="stop-color:#9CA4AA"/>
				</linearGradient>
				<path fill="url(#SVGID_28_)" d="M131.7,435.7l0-7.3c0.4-0.4,0.8-0.8,1.1-1.2l0,7.3C132.5,434.9,132.1,435.3,131.7,435.7"/>
				<linearGradient id="SVGID_29_" gradientUnits="userSpaceOnUse" x1="126.1692" y1="429.8477" x2="42.3235" y2="429.8477">
					<stop  offset="0" style="stop-color:#EBF1F0"/>
					<stop  offset="0.5054" style="stop-color:#EDF1ED"/>
					<stop  offset="1" style="stop-color:#9CA4AA"/>
				</linearGradient>
				<path fill="url(#SVGID_29_)" d="M132.8,434.5l0-7.3c0.4-0.6,0.6-1.3,0.6-1.9l0,7.3C133.4,433.2,133.2,433.8,132.8,434.5"/>
			</g>
		</g>
		<g>
			<linearGradient id="SVGID_30_" gradientUnits="userSpaceOnUse" x1="36.9934" y1="425.1547" x2="158.578" y2="425.1547">
				<stop  offset="0" style="stop-color:#EBF1F0"/>
				<stop  offset="0.629" style="stop-color:#EDF1ED"/>
				<stop  offset="1" style="stop-color:#9CA4AA"/>
			</linearGradient>
			<path fill="url(#SVGID_30_)" d="M129.6,420.6c9.2,5.2,1.4,11.5-17.3,14c-18.8,2.5-41.5,0.3-50.7-4.9s-1.4-11.5,17.3-14
				C97.7,413.2,120.3,415.4,129.6,420.6z"/>
		</g>
		<g>
			<defs>
				<path id="SVGID_32_" d="M65.2,421.2l0-5.9c0,1.2,1,2.5,3.1,3.7c7.4,4.2,25.5,5.9,40.6,3.9c10.7-1.4,17-4.4,17-7.5l0,5.9
					c0,3.1-6.2,6.1-17,7.5c-15,2-33.2,0.3-40.6-3.9C66.2,423.7,65.2,422.4,65.2,421.2z"/>
			</defs>
			<linearGradient id="SVGID_31_" gradientUnits="userSpaceOnUse" x1="141.9947" y1="422.4564" x2="52.3039" y2="422.4564">
				<stop  offset="0" style="stop-color:#EBF1F0"/>
				<stop  offset="0.5054" style="stop-color:#EDF1ED"/>
				<stop  offset="1" style="stop-color:#9CA4AA"/>
			</linearGradient>
			<use xlink:href="#SVGID_32_"  overflow="visible" fill="url(#SVGID_31_)"/>
			<clipPath id="SVGID_33_">
				<use xlink:href="#SVGID_32_"  overflow="visible"/>
			</clipPath>
			<g clip-path="url(#SVGID_33_)" enable-background="new    ">
				<linearGradient id="SVGID_34_" gradientUnits="userSpaceOnUse" x1="141.9947" y1="419.7006" x2="52.3039" y2="419.7006">
					<stop  offset="0" style="stop-color:#EBF1F0"/>
					<stop  offset="0.5054" style="stop-color:#EDF1ED"/>
					<stop  offset="1" style="stop-color:#9CA4AA"/>
				</linearGradient>
				<path fill="url(#SVGID_34_)" d="M65.2,421.2l0-5.9c0,1,0.6,2,1.9,3l0,5.9C65.8,423.1,65.2,422.1,65.2,421.2"/>
				<linearGradient id="SVGID_35_" gradientUnits="userSpaceOnUse" x1="141.9947" y1="421.6479" x2="52.3039" y2="421.6479">
					<stop  offset="0" style="stop-color:#EBF1F0"/>
					<stop  offset="0.5054" style="stop-color:#EDF1ED"/>
					<stop  offset="1" style="stop-color:#9CA4AA"/>
				</linearGradient>
				<path fill="url(#SVGID_35_)" d="M67.2,424.1l0-5.9c0.3,0.3,0.7,0.5,1.2,0.7c0.1,0.1,0.2,0.1,0.3,0.2l0,5.9
					c-0.1-0.1-0.2-0.1-0.3-0.2C67.9,424.6,67.5,424.4,67.2,424.1"/>
				<linearGradient id="SVGID_36_" gradientUnits="userSpaceOnUse" x1="141.9947" y1="422.4648" x2="52.3039" y2="422.4648">
					<stop  offset="0" style="stop-color:#EBF1F0"/>
					<stop  offset="0.5054" style="stop-color:#EDF1ED"/>
					<stop  offset="1" style="stop-color:#9CA4AA"/>
				</linearGradient>
				<path fill="url(#SVGID_36_)" d="M68.6,425l0-5.9c0.5,0.2,0.9,0.5,1.5,0.7l0,5.9C69.6,425.5,69.1,425.3,68.6,425"/>
				<linearGradient id="SVGID_37_" gradientUnits="userSpaceOnUse" x1="141.9947" y1="423.1071" x2="52.3039" y2="423.1071">
					<stop  offset="0" style="stop-color:#EBF1F0"/>
					<stop  offset="0.5054" style="stop-color:#EDF1ED"/>
					<stop  offset="1" style="stop-color:#9CA4AA"/>
				</linearGradient>
				<path fill="url(#SVGID_37_)" d="M70.1,425.8l0-5.9c0.5,0.2,1,0.4,1.5,0.6l0,5.9C71.1,426.1,70.6,426,70.1,425.8"/>
				<linearGradient id="SVGID_38_" gradientUnits="userSpaceOnUse" x1="141.9947" y1="423.6502" x2="52.3039" y2="423.6502">
					<stop  offset="0" style="stop-color:#EBF1F0"/>
					<stop  offset="0.5054" style="stop-color:#EDF1ED"/>
					<stop  offset="1" style="stop-color:#9CA4AA"/>
				</linearGradient>
				<path fill="url(#SVGID_38_)" d="M71.6,426.3l0-5.9c0.5,0.2,1,0.3,1.5,0.5l0,5.9C72.6,426.7,72.1,426.5,71.6,426.3"/>
				<linearGradient id="SVGID_39_" gradientUnits="userSpaceOnUse" x1="141.9947" y1="424.1279" x2="52.3039" y2="424.1279">
					<stop  offset="0" style="stop-color:#EBF1F0"/>
					<stop  offset="0.5054" style="stop-color:#EDF1ED"/>
					<stop  offset="1" style="stop-color:#9CA4AA"/>
				</linearGradient>
				<path fill="url(#SVGID_39_)" d="M73.1,426.8l0-5.9c0.5,0.2,1,0.3,1.6,0.5l0,5.9C74.2,427.1,73.6,427,73.1,426.8"/>
				<linearGradient id="SVGID_40_" gradientUnits="userSpaceOnUse" x1="141.9947" y1="424.5583" x2="52.3039" y2="424.5583">
					<stop  offset="0" style="stop-color:#EBF1F0"/>
					<stop  offset="0.5054" style="stop-color:#EDF1ED"/>
					<stop  offset="1" style="stop-color:#9CA4AA"/>
				</linearGradient>
				<path fill="url(#SVGID_40_)" d="M74.7,427.3l0-5.9c0.5,0.1,1.1,0.3,1.7,0.4l0,5.9C75.8,427.6,75.2,427.4,74.7,427.3"/>
				<linearGradient id="SVGID_41_" gradientUnits="userSpaceOnUse" x1="141.9947" y1="424.9519" x2="52.3039" y2="424.9519">
					<stop  offset="0" style="stop-color:#EBF1F0"/>
					<stop  offset="0.5054" style="stop-color:#EDF1ED"/>
					<stop  offset="1" style="stop-color:#9CA4AA"/>
				</linearGradient>
				<path fill="url(#SVGID_41_)" d="M76.4,427.7l0-5.9c0.6,0.1,1.2,0.3,1.8,0.4l0,5.9C77.5,428,76.9,427.8,76.4,427.7"/>
				<linearGradient id="SVGID_42_" gradientUnits="userSpaceOnUse" x1="141.9947" y1="425.3151" x2="52.3039" y2="425.3151">
					<stop  offset="0" style="stop-color:#EBF1F0"/>
					<stop  offset="0.5054" style="stop-color:#EDF1ED"/>
					<stop  offset="1" style="stop-color:#9CA4AA"/>
				</linearGradient>
				<path fill="url(#SVGID_42_)" d="M78.1,428.1l0-5.9c0.6,0.1,1.3,0.2,1.9,0.3l0,5.9C79.4,428.3,78.8,428.2,78.1,428.1"/>
				<linearGradient id="SVGID_43_" gradientUnits="userSpaceOnUse" x1="141.9947" y1="425.6507" x2="52.3039" y2="425.6507">
					<stop  offset="0" style="stop-color:#EBF1F0"/>
					<stop  offset="0.5054" style="stop-color:#EDF1ED"/>
					<stop  offset="1" style="stop-color:#9CA4AA"/>
				</linearGradient>
				<path fill="url(#SVGID_43_)" d="M80.1,428.4l0-5.9c0.7,0.1,1.4,0.2,2.1,0.3l0,5.9C81.5,428.6,80.8,428.5,80.1,428.4"/>
				<linearGradient id="SVGID_44_" gradientUnits="userSpaceOnUse" x1="141.9947" y1="425.9592" x2="52.3039" y2="425.9592">
					<stop  offset="0" style="stop-color:#EBF1F0"/>
					<stop  offset="0.5054" style="stop-color:#EDF1ED"/>
					<stop  offset="1" style="stop-color:#9CA4AA"/>
				</linearGradient>
				<path fill="url(#SVGID_44_)" d="M82.2,428.7l0-5.9c0.8,0.1,1.6,0.2,2.4,0.3l0,5.9C83.8,429,83,428.9,82.2,428.7"/>
				<linearGradient id="SVGID_45_" gradientUnits="userSpaceOnUse" x1="141.9947" y1="426.2364" x2="52.3039" y2="426.2364">
					<stop  offset="0" style="stop-color:#EBF1F0"/>
					<stop  offset="0.5054" style="stop-color:#EDF1ED"/>
					<stop  offset="1" style="stop-color:#9CA4AA"/>
				</linearGradient>
				<path fill="url(#SVGID_45_)" d="M84.6,429l0-5.9c0.9,0.1,1.8,0.2,2.8,0.3l0,5.9C86.4,429.2,85.5,429.1,84.6,429"/>
				<linearGradient id="SVGID_46_" gradientUnits="userSpaceOnUse" x1="141.9947" y1="426.4733" x2="52.3039" y2="426.4733">
					<stop  offset="0" style="stop-color:#EBF1F0"/>
					<stop  offset="0.5054" style="stop-color:#EDF1ED"/>
					<stop  offset="1" style="stop-color:#9CA4AA"/>
				</linearGradient>
				<path fill="url(#SVGID_46_)" d="M87.4,429.3l0-5.9c1.1,0.1,2.3,0.2,3.4,0.2l0,5.9C89.6,429.5,88.5,429.4,87.4,429.3"/>
				<linearGradient id="SVGID_47_" gradientUnits="userSpaceOnUse" x1="141.9947" y1="426.4868" x2="52.3039" y2="426.4868">
					<stop  offset="0" style="stop-color:#EBF1F0"/>
					<stop  offset="0.5054" style="stop-color:#EDF1ED"/>
					<stop  offset="1" style="stop-color:#9CA4AA"/>
				</linearGradient>
				<path fill="url(#SVGID_47_)" d="M90.8,429.5l0-5.9c4.7,0.2,9.6,0.1,14.3-0.3l0,5.9C100.4,429.6,95.5,429.7,90.8,429.5"/>
				<linearGradient id="SVGID_48_" gradientUnits="userSpaceOnUse" x1="141.9947" y1="426.0885" x2="52.3039" y2="426.0885">
					<stop  offset="0" style="stop-color:#EBF1F0"/>
					<stop  offset="0.5054" style="stop-color:#EDF1ED"/>
					<stop  offset="1" style="stop-color:#9CA4AA"/>
				</linearGradient>
				<path fill="url(#SVGID_48_)" d="M105.1,429.2l0-5.9c1.2-0.1,2.3-0.2,3.5-0.4l0,5.9C107.4,429,106.3,429.1,105.1,429.2"/>
				<linearGradient id="SVGID_49_" gradientUnits="userSpaceOnUse" x1="141.9947" y1="425.6995" x2="52.3039" y2="425.6995">
					<stop  offset="0" style="stop-color:#EBF1F0"/>
					<stop  offset="0.5054" style="stop-color:#EDF1ED"/>
					<stop  offset="1" style="stop-color:#9CA4AA"/>
				</linearGradient>
				<path fill="url(#SVGID_49_)" d="M108.6,428.8l0-5.9c0.1,0,0.2,0,0.3,0c0.8-0.1,1.6-0.2,2.4-0.4l0,5.9c-0.8,0.1-1.5,0.2-2.4,0.4
					C108.8,428.8,108.7,428.8,108.6,428.8"/>
				<linearGradient id="SVGID_50_" gradientUnits="userSpaceOnUse" x1="141.9947" y1="425.3015" x2="52.3039" y2="425.3015">
					<stop  offset="0" style="stop-color:#EBF1F0"/>
					<stop  offset="0.5054" style="stop-color:#EDF1ED"/>
					<stop  offset="1" style="stop-color:#9CA4AA"/>
				</linearGradient>
				<path fill="url(#SVGID_50_)" d="M111.3,428.4l0-5.9c0.8-0.1,1.5-0.3,2.2-0.4l0,5.9C112.7,428.2,112,428.3,111.3,428.4"/>
				<linearGradient id="SVGID_51_" gradientUnits="userSpaceOnUse" x1="141.9945" y1="424.8949" x2="52.3037" y2="424.8949">
					<stop  offset="0" style="stop-color:#EBF1F0"/>
					<stop  offset="0.5054" style="stop-color:#EDF1ED"/>
					<stop  offset="1" style="stop-color:#9CA4AA"/>
				</linearGradient>
				<path fill="url(#SVGID_51_)" d="M113.4,428l0-5.9c0.7-0.1,1.3-0.3,1.9-0.4l0,5.9C114.7,427.8,114.1,427.9,113.4,428"/>
				<linearGradient id="SVGID_52_" gradientUnits="userSpaceOnUse" x1="141.9947" y1="424.474" x2="52.3039" y2="424.474">
					<stop  offset="0" style="stop-color:#EBF1F0"/>
					<stop  offset="0.5054" style="stop-color:#EDF1ED"/>
					<stop  offset="1" style="stop-color:#9CA4AA"/>
				</linearGradient>
				<path fill="url(#SVGID_52_)" d="M115.3,427.6l0-5.9c0.6-0.1,1.1-0.3,1.7-0.4l0,5.9C116.5,427.3,115.9,427.5,115.3,427.6"/>
				<linearGradient id="SVGID_53_" gradientUnits="userSpaceOnUse" x1="141.9947" y1="424.0345" x2="52.3039" y2="424.0345">
					<stop  offset="0" style="stop-color:#EBF1F0"/>
					<stop  offset="0.5054" style="stop-color:#EDF1ED"/>
					<stop  offset="1" style="stop-color:#9CA4AA"/>
				</linearGradient>
				<path fill="url(#SVGID_53_)" d="M117,427.2l0-5.9c0.5-0.1,1-0.3,1.5-0.5l0,5.9C118,426.9,117.5,427,117,427.2"/>
				<linearGradient id="SVGID_54_" gradientUnits="userSpaceOnUse" x1="141.9947" y1="423.5699" x2="52.3039" y2="423.5699">
					<stop  offset="0" style="stop-color:#EBF1F0"/>
					<stop  offset="0.5054" style="stop-color:#EDF1ED"/>
					<stop  offset="1" style="stop-color:#9CA4AA"/>
				</linearGradient>
				<path fill="url(#SVGID_54_)" d="M118.5,426.7l0-5.9c0.5-0.2,0.9-0.3,1.4-0.5l0,5.9C119.5,426.4,119,426.6,118.5,426.7"/>
				<linearGradient id="SVGID_55_" gradientUnits="userSpaceOnUse" x1="141.9947" y1="423.0717" x2="52.3039" y2="423.0717">
					<stop  offset="0" style="stop-color:#EBF1F0"/>
					<stop  offset="0.5054" style="stop-color:#EDF1ED"/>
					<stop  offset="1" style="stop-color:#9CA4AA"/>
				</linearGradient>
				<path fill="url(#SVGID_55_)" d="M119.9,426.3l0-5.9c0.5-0.2,0.9-0.3,1.3-0.5l0,5.9C120.8,425.9,120.4,426.1,119.9,426.3"/>
				<linearGradient id="SVGID_56_" gradientUnits="userSpaceOnUse" x1="141.9947" y1="422.5286" x2="52.3039" y2="422.5286">
					<stop  offset="0" style="stop-color:#EBF1F0"/>
					<stop  offset="0.5054" style="stop-color:#EDF1ED"/>
					<stop  offset="1" style="stop-color:#9CA4AA"/>
				</linearGradient>
				<path fill="url(#SVGID_56_)" d="M121.2,425.7l0-5.9c0.4-0.2,0.8-0.4,1.2-0.6l0,5.9C122,425.4,121.6,425.6,121.2,425.7"/>
				<linearGradient id="SVGID_57_" gradientUnits="userSpaceOnUse" x1="141.9947" y1="421.9226" x2="52.3039" y2="421.9226">
					<stop  offset="0" style="stop-color:#EBF1F0"/>
					<stop  offset="0.5054" style="stop-color:#EDF1ED"/>
					<stop  offset="1" style="stop-color:#9CA4AA"/>
				</linearGradient>
				<path fill="url(#SVGID_57_)" d="M122.4,425.2l0-5.9c0.4-0.2,0.8-0.4,1.1-0.6l0,5.9C123.1,424.8,122.8,425,122.4,425.2"/>
				<linearGradient id="SVGID_58_" gradientUnits="userSpaceOnUse" x1="141.9947" y1="421.2192" x2="52.3039" y2="421.2192">
					<stop  offset="0" style="stop-color:#EBF1F0"/>
					<stop  offset="0.5054" style="stop-color:#EDF1ED"/>
					<stop  offset="1" style="stop-color:#9CA4AA"/>
				</linearGradient>
				<path fill="url(#SVGID_58_)" d="M123.5,424.5l0-5.9c0.4-0.2,0.7-0.5,1-0.8l0,5.9C124.2,424,123.9,424.3,123.5,424.5"/>
				<linearGradient id="SVGID_59_" gradientUnits="userSpaceOnUse" x1="141.9947" y1="420.352" x2="52.3039" y2="420.352">
					<stop  offset="0" style="stop-color:#EBF1F0"/>
					<stop  offset="0.5054" style="stop-color:#EDF1ED"/>
					<stop  offset="1" style="stop-color:#9CA4AA"/>
				</linearGradient>
				<path fill="url(#SVGID_59_)" d="M124.5,423.8l0-5.9c0.4-0.3,0.7-0.6,0.9-1l0,5.9C125.1,423.1,124.8,423.5,124.5,423.8"/>
				<linearGradient id="SVGID_60_" gradientUnits="userSpaceOnUse" x1="141.9947" y1="419.0927" x2="52.3039" y2="419.0927">
					<stop  offset="0" style="stop-color:#EBF1F0"/>
					<stop  offset="0.5054" style="stop-color:#EDF1ED"/>
					<stop  offset="1" style="stop-color:#9CA4AA"/>
				</linearGradient>
				<path fill="url(#SVGID_60_)" d="M125.4,422.8l0-5.9c0.3-0.5,0.5-1,0.5-1.5l0,5.9C125.9,421.8,125.7,422.3,125.4,422.8"/>
			</g>
		</g>
		<g>
			<linearGradient id="SVGID_61_" gradientUnits="userSpaceOnUse" x1="42.771" y1="415.3334" x2="153.8011" y2="415.3334">
				<stop  offset="0" style="stop-color:#EBF1F0"/>
				<stop  offset="0.629" style="stop-color:#EDF1ED"/>
				<stop  offset="1" style="stop-color:#9CA4AA"/>
			</linearGradient>
			<path fill="url(#SVGID_61_)" d="M122.8,411.7c7.4,4.2,1.2,9.2-13.9,11.2c-15,2-33.2,0.3-40.6-3.9c-7.4-4.2-1.2-9.2,13.9-11.2
				S115.4,407.5,122.8,411.7z"/>
		</g>
	</g>
	<g id="Group_83">
		<g id="Group_82">
			<path id="Path_172" fill="#6F1049" d="M128.6,315.2h4v40.5h-4V315.2z M131.4,315.2h22.7v3.7h-22.7V315.2z M131.4,334H151v3.7
				h-19.6V334z"/>
			<path id="Path_173" fill="#6F1049" d="M161.6,315.2h4v4h-4V315.2z M161.6,326.7h4v28.9h-4V326.7z"/>
			<path id="Path_174" fill="#6F1049" d="M175,315.2h4v40.5h-4V315.2z M182.1,354.9c-1.6-0.8-2.8-2.1-3.5-3.8l0.4-6
				c0,1.3,0.3,2.5,0.9,3.6c0.6,1.2,1.5,2.1,2.6,2.8c1.2,0.7,2.5,1.1,3.9,1.1c2.1,0.1,4.1-0.7,5.6-2.2c1.4-1.7,2.1-3.9,2-6.1v-6.3
				c0.1-2.2-0.6-4.4-2-6.2c-1.5-1.5-3.5-2.3-5.6-2.2c-1.4,0-2.7,0.3-3.9,1.1c-1.1,0.7-2,1.6-2.6,2.8c-0.6,1.1-0.9,2.3-0.9,3.6
				l-0.6-5.6c0.9-1.7,2.3-3.2,4-4c1.8-0.9,3.8-1.3,5.8-1.2c1.8-0.1,3.7,0.4,5.2,1.4c1.5,1,2.7,2.4,3.3,4c0.8,2,1.2,4.2,1.1,6.4v6.3
				c0.1,2.2-0.3,4.3-1.2,6.3c-0.7,1.7-1.9,3-3.4,4c-1.6,1-3.5,1.4-5.4,1.4C186,356.1,184,355.7,182.1,354.9L182.1,354.9z"/>
			<path id="Path_175" fill="#6F1049" d="M211,354.5c-1.9-1-3.4-2.5-4.3-4.4c-1-2.2-1.6-4.6-1.5-7v-3.3c-0.1-2.5,0.4-5,1.4-7.3
				c0.9-1.9,2.3-3.5,4.2-4.6c2-1.1,4.3-1.7,6.6-1.6c2.2-0.1,4.3,0.5,6.2,1.6c1.7,1.1,3.1,2.7,3.9,4.6c1,2.3,1.4,4.7,1.4,7.2v3.3
				h-20.9v-3.6h17.1V339c0.2-2.4-0.6-4.7-2-6.6c-1.4-1.6-3.5-2.5-5.7-2.4c-2.3-0.1-4.6,0.8-6.2,2.5c-1.5,1.7-2.2,4-2.2,7v3.7
				c-0.2,2.5,0.7,4.9,2.3,6.7c1.8,1.7,4.2,2.5,6.6,2.4c1.4,0,2.7-0.3,4-0.8c1.3-0.6,2.5-1.4,3.5-2.4l2.7,2.6c-1.4,1.4-3,2.4-4.8,3.2
				c-1.7,0.7-3.5,1.1-5.4,1.1C215.5,356.1,213.1,355.6,211,354.5L211,354.5z"/>
			<path id="Path_176" fill="#6F1049" d="M236.6,326.7h4v28.9h-4V326.7z M251.4,330.5c-1-0.3-2.1-0.5-3.1-0.5
				c-2.1-0.1-4.1,0.6-5.6,1.9c-1.4,1.4-2.1,3.4-2,5.4l-0.6-5.6c1-1.7,2.4-3.1,4.2-4c1.7-1,3.7-1.5,5.6-1.4c1.2,0,2.4,0.2,3.6,0.6
				c1,0.4,2,0.9,2.8,1.7l-2.6,3.3C253,331.3,252.2,330.8,251.4,330.5z"/>
			<path id="Path_177" fill="#6F1049" d="M128.6,365.2h4v40.5h-4V365.2z M131.9,401.9H143c3.4,0,5.9-0.6,7.5-1.9
				c1.6-1.3,2.5-3.4,2.4-5.4v-0.1c0-1.4-0.3-2.8-0.9-4.1c-0.6-1.2-1.6-2.1-2.8-2.7c-1.5-0.7-3.2-1-4.8-0.9h-12.5V383h12.5
				c2.6,0,4.6-0.6,5.9-1.8c2.7-3,2.6-7.6-0.2-10.6c-1.4-1.2-3.6-1.8-6.5-1.8h-11.7v-3.7h12.6c2.3-0.1,4.5,0.4,6.6,1.3
				c1.7,0.8,3.1,2.1,4,3.8c0.9,1.8,1.4,3.8,1.3,5.8c0,1.3-0.3,2.7-0.8,3.9c-0.6,1.2-1.4,2.3-2.5,3.1c-1.2,0.9-2.6,1.5-4.1,1.8
				c1.5,0.2,3,0.8,4.2,1.7c1.2,0.9,2.1,2.1,2.7,3.4c0.6,1.4,1,2.9,0.9,4.5v0.1c0,2-0.5,4-1.4,5.8c-1,1.7-2.4,3-4.1,3.9
				c-2,0.9-4.1,1.4-6.3,1.4h-13.1V401.9z"/>
			<path id="Path_178" fill="#6F1049" d="M164.8,376.7h4v28.9h-4V376.7z M179.6,380.5c-1-0.3-2.1-0.5-3.1-0.5
				c-2.1-0.1-4.1,0.6-5.6,1.9c-1.4,1.4-2.1,3.4-2,5.4l-0.6-5.6c1-1.7,2.4-3.1,4.2-4c1.7-1,3.7-1.5,5.6-1.4c1.2,0,2.4,0.2,3.6,0.6
				c1,0.4,2,0.9,2.8,1.7l-2.6,3.3C181.2,381.3,180.4,380.8,179.6,380.5z"/>
			<path id="Path_179" fill="#6F1049" d="M193.2,404.6c-1.8-1-3.2-2.5-4.1-4.3c-1-2.1-1.5-4.5-1.4-6.8v-4.7
				c-0.1-2.3,0.4-4.6,1.4-6.7c0.9-1.8,2.3-3.3,4.1-4.3c4.1-1.9,8.8-1.9,12.9,0c1.8,1,3.2,2.4,4.1,4.3c1,2.1,1.5,4.4,1.4,6.7v4.8
				c0.1,2.3-0.4,4.6-1.4,6.7c-0.9,1.8-2.3,3.3-4.1,4.3C202,406.5,197.3,406.5,193.2,404.6L193.2,404.6z M205.5,400
				c1.5-1.8,2.2-4.1,2.1-6.5v-4.8c0.1-2.3-0.6-4.6-2.1-6.4c-1.5-1.6-3.7-2.4-5.9-2.3c-2.2-0.1-4.3,0.7-5.8,2.3
				c-1.5,1.8-2.2,4.1-2.1,6.4v4.8c-0.1,2.3,0.6,4.6,2.1,6.5c1.5,1.6,3.6,2.4,5.8,2.3C201.8,402.5,204,401.6,205.5,400L205.5,400z"/>
			<path id="Path_180" fill="#6F1049" d="M221,403.7c-1.9-1.7-2.9-4.1-2.8-6.6c-0.1-2.4,0.8-4.7,2.5-6.3c1.7-1.5,4.1-2.2,7.2-2.2
				h9.6l0.4,3.7h-10c-1.5-0.1-3.1,0.4-4.3,1.3c-1.9,1.8-2,4.9-0.2,6.9c0.2,0.2,0.4,0.4,0.6,0.5c1.6,1,3.5,1.5,5.4,1.3
				c2,0.1,3.9-0.2,5.8-0.8c1.4-0.5,2.1-1.2,2.1-2.1l0.6,3.8c-0.6,0.6-1.4,1.2-2.2,1.5c-1,0.5-2,0.8-3.1,1c-1.2,0.2-2.5,0.3-3.7,0.3
				C225.5,406,222.9,405.3,221,403.7z M237.4,387.3c0.1-2-0.6-4-1.9-5.4c-1.4-1.4-3.4-2.1-5.3-1.9c-1.4,0-2.7,0.2-4,0.7
				c-1.3,0.4-2.5,1.1-3.5,1.9l-2.9-2c1.2-1.4,2.7-2.4,4.3-3.1c1.9-0.8,3.9-1.1,6-1.1c2.1-0.1,4.2,0.4,6.1,1.3c1.7,0.8,3,2.1,3.9,3.7
				c0.9,1.8,1.4,3.8,1.3,5.8v18.6h-4L237.4,387.3z"/>
			<path id="Path_181" fill="#6F1049" d="M253.7,404.7c-1.5-0.9-2.7-2.3-3.4-4c-0.8-2-1.2-4.1-1.2-6.3v-6.3
				c-0.1-2.2,0.3-4.3,1.1-6.4c0.7-1.7,1.8-3.1,3.3-4c1.6-1,3.4-1.4,5.2-1.4c2,0,4,0.4,5.8,1.2c1.7,0.9,3.1,2.3,4,4l-0.6,5.6
				c0-1.3-0.3-2.5-0.9-3.6c-0.6-1.1-1.5-2.1-2.5-2.8c-3.1-1.8-6.9-1.3-9.5,1.1c-1.4,1.7-2.1,3.9-2,6.2v6.3c-0.1,2.2,0.6,4.4,2,6.1
				c1.5,1.5,3.5,2.3,5.6,2.2c1.4,0,2.7-0.3,3.9-1.1c1.1-0.7,2-1.7,2.6-2.8c0.6-1.1,0.9-2.4,0.9-3.6l0.4,6c-0.6,1.7-1.9,3-3.5,3.8
				c-1.8,0.8-3.9,1.2-5.9,1.2C257.2,406.1,255.4,405.6,253.7,404.7z M268.1,365.2h4v40.5h-4V365.2z"/>
			<path id="Path_182" fill="#6F1049" d="M280.7,365.2h4v40.5h-4V365.2z M287.8,404.9c-1.6-0.8-2.8-2.1-3.5-3.8l0.4-6
				c0,1.3,0.3,2.5,0.9,3.6c0.6,1.2,1.5,2.1,2.6,2.8c1.2,0.7,2.5,1.1,3.9,1.1c2.1,0.1,4.1-0.7,5.6-2.2c1.4-1.7,2.1-3.9,2-6v-6.3
				c0.1-2.2-0.6-4.4-2-6.2c-1.5-1.5-3.5-2.3-5.6-2.2c-1.4,0-2.7,0.3-3.9,1.1c-1.1,0.7-2,1.6-2.6,2.8c-0.6,1.1-0.9,2.3-0.9,3.6
				l-0.6-5.6c0.9-1.7,2.3-3.2,4-4c1.8-0.9,3.8-1.3,5.8-1.2c1.8-0.1,3.7,0.4,5.2,1.4c1.5,1,2.7,2.4,3.3,4c0.8,2,1.2,4.2,1.1,6.4v6.3
				c0.1,2.2-0.3,4.3-1.2,6.3c-0.7,1.7-1.9,3-3.4,4c-1.6,1-3.5,1.4-5.4,1.4C291.6,406.1,289.6,405.7,287.8,404.9L287.8,404.9z"/>
			<path id="Path_183" fill="#6F1049" d="M313.1,403.7c-1.9-1.7-2.9-4.1-2.8-6.6c-0.1-2.4,0.8-4.7,2.5-6.3c1.7-1.5,4.1-2.2,7.2-2.2
				h9.6l0.4,3.7h-10c-1.5-0.1-3.1,0.4-4.3,1.3c-1.9,1.8-2,4.9-0.2,6.9c0.2,0.2,0.4,0.4,0.6,0.5c1.6,1,3.5,1.5,5.4,1.3
				c2,0.1,3.9-0.2,5.8-0.8c1.4-0.5,2.1-1.2,2.1-2.1l0.6,3.8c-0.6,0.6-1.4,1.2-2.2,1.5c-1,0.5-2,0.8-3.1,1c-1.2,0.2-2.5,0.3-3.7,0.3
				C317.6,406,315,405.3,313.1,403.7z M329.4,387.3c0.1-2-0.6-4-1.9-5.4c-1.4-1.4-3.4-2.1-5.3-1.9c-1.4,0-2.7,0.2-4,0.7
				c-1.3,0.4-2.5,1.1-3.5,1.9l-2.9-2c1.2-1.4,2.7-2.4,4.3-3.1c1.9-0.8,3.9-1.1,6-1.1c2.1-0.1,4.2,0.4,6.2,1.3c1.7,0.8,3,2.1,3.9,3.7
				c0.9,1.8,1.4,3.8,1.3,5.8v18.6h-4V387.3z"/>
			<path id="Path_184" fill="#6F1049" d="M342.1,376.7h4v28.9h-4V376.7z M361.3,388.1c0.1-2.2-0.6-4.3-2-6c-1.5-1.5-3.6-2.2-5.7-2.1
				c-2-0.1-4,0.5-5.5,1.9c-1.4,1.4-2.1,3.4-2,5.3l-0.6-5.6c0.9-1.8,2.3-3.2,4.1-4.1c1.8-0.9,3.8-1.3,5.9-1.3c2.8-0.2,5.5,1,7.3,3.1
				c1.7,2,2.6,5,2.6,8.7v17.5h-4L361.3,388.1z"/>
			<path id="Path_185" fill="#6F1049" d="M377.7,404.7c-1.5-0.9-2.7-2.3-3.4-4c-0.8-2-1.2-4.1-1.2-6.3v-6.3
				c-0.1-2.2,0.3-4.3,1.1-6.4c0.7-1.7,1.8-3.1,3.3-4c1.6-1,3.4-1.4,5.2-1.4c2,0,4,0.4,5.8,1.2c1.7,0.9,3.1,2.3,4,4l-0.6,5.6
				c0-1.3-0.3-2.5-0.9-3.6c-0.6-1.1-1.5-2.1-2.5-2.8c-3.1-1.8-6.9-1.3-9.5,1.1c-1.4,1.7-2.1,3.9-2,6.2v6.3c-0.1,2.2,0.6,4.4,2,6.1
				c1.5,1.5,3.5,2.3,5.6,2.2c1.4,0,2.7-0.3,3.9-1.1c1.1-0.7,2-1.7,2.6-2.8c0.6-1.1,0.9-2.4,0.9-3.6l0.4,6c-0.6,1.7-1.9,3-3.5,3.8
				c-1.8,0.8-3.9,1.2-5.9,1.2C381.2,406.1,379.3,405.6,377.7,404.7L377.7,404.7z M392,365.2h4v40.5h-4V365.2z"/>
		</g>
	</g>
	<g>
		<g id="Group_92">
			<path id="SVGID-3" fill="#817279" d="M102.5,413.9l-15.8-0.2c-1.5,0-2.7-1.3-2.7-2.8l0.7-63.2c0-2.3,0.1-4.5,0.1-6.7
				c0-1.5-1.1-2.8-2.7-2.8c-0.7,0-1.4,0.2-1.9,0.7l-0.1,0.1l-6.7,5.4c-1.2,1-2.9,0.8-3.9-0.4c0,0,0,0,0,0l-7.3-9.2
				c-0.9-1.2-0.7-2.9,0.4-3.9l24-19.1c0.5-0.4,1.1-0.6,1.7-0.6l15.2,0.2c1.5,0,2.7,1.3,2.7,2.8c0,0,0,0,0,0l-1,97
				C105.2,412.7,104,413.9,102.5,413.9C102.5,413.9,102.5,413.9,102.5,413.9L102.5,413.9z"/>
			<g>
				<defs>
					<path id="SVGID_62_" d="M102.5,413.9l-15.8-0.2c-1.5,0-2.7-1.3-2.7-2.8l0.7-63.2c0-2.3,0.1-4.5,0.1-6.7c0-1.5-1.1-2.8-2.7-2.8
						c-0.7,0-1.4,0.2-1.9,0.7l-0.1,0.1l-6.7,5.4c-1.2,1-2.9,0.8-3.9-0.4c0,0,0,0,0,0l-7.3-9.2c-0.9-1.2-0.7-2.9,0.4-3.9l24-19.1
						c0.5-0.4,1.1-0.6,1.7-0.6l15.2,0.2c1.5,0,2.7,1.3,2.7,2.8c0,0,0,0,0,0l-1,97C105.2,412.7,104,413.9,102.5,413.9
						C102.5,413.9,102.5,413.9,102.5,413.9L102.5,413.9z"/>
				</defs>
				<clipPath id="SVGID_63_">
					<use xlink:href="#SVGID_62_"  overflow="visible"/>
				</clipPath>
				<g id="Group_91" clip-path="url(#SVGID_63_)">
					<g id="Group_90">
						<path id="Rectangle_19" fill="#817279" d="M66.4,266.4h37.8c4.3,0,7.8,3.5,7.8,7.8v184.5c0,4.3-3.5,7.8-7.8,7.8H66.4
							c-4.3,0-7.8-3.5-7.8-7.8V274.2C58.5,269.9,62,266.4,66.4,266.4z"/>
						<g id="Group_89">
							<path id="Path_186" fill="#817279" d="M60.1,274.2c0-3.5,3.1-6.3,7-6.3h36.3c3.9,0,7,2.8,7,6.3v184.5c0,3.5-3.1,6.3-7,6.3
								H67.1c-3.9,0-7-2.8-7-6.3L60.1,274.2 M58.5,274.2v184.5c0,4.3,3.8,7.8,8.6,7.8h36.3c4.7,0,8.6-3.5,8.6-7.8V274.2
								c0-4.3-3.8-7.8-8.6-7.8H67.1C62.4,266.4,58.5,269.9,58.5,274.2L58.5,274.2z"/>
						</g>
					</g>
				</g>
			</g>
		</g>
		<g>
			<defs>
				<path id="SVGID_65_" d="M105.1,414.7l-15.8-0.2c-1.5,0-2.7-1.3-2.7-2.8c0,0,0,0,0,0l0.7-63.3c0-2.3,0.1-4.5,0.1-6.7
					c0-1.5-1.1-2.8-2.7-2.8c-0.7,0-1.4,0.2-1.9,0.7l-0.1,0.1l-6.7,5.4c-1.2,1-2.9,0.8-3.9-0.4c0,0,0,0,0,0l-7.3-9.2
					c-0.9-1.2-0.7-2.9,0.4-3.9l24-19.1c0.5-0.4,1.1-0.6,1.7-0.6l15.2,0.2c1.5,0,2.7,1.3,2.7,2.8c0,0,0,0,0,0l-1,97
					C107.9,413.5,106.7,414.7,105.1,414.7C105.1,414.7,105.1,414.7,105.1,414.7L105.1,414.7z"/>
			</defs>
			<clipPath id="SVGID_66_">
				<use xlink:href="#SVGID_65_"  overflow="visible"/>
			</clipPath>
			<g id="Group_96" clip-path="url(#SVGID_66_)">
				<g id="Group_95">
					
						<linearGradient id="Rectangle_20_1_" gradientUnits="userSpaceOnUse" x1="-79.8435" y1="791.3456" x2="-76.0995" y2="791.3456" gradientTransform="matrix(53.44 0 0 -200.1 7455.269 158715.4844)">
						<stop  offset="0" style="stop-color:#F8B318"/>
						<stop  offset="0" style="stop-color:#EEB527"/>
						<stop  offset="0.32" style="stop-color:#FFEF79"/>
						<stop  offset="0.68" style="stop-color:#D99A13"/>
						<stop  offset="1" style="stop-color:#FFF083"/>
					</linearGradient>
					<path id="Rectangle_20" fill="url(#Rectangle_20_1_)" d="M69,267.2h37.8c4.3,0,7.8,3.5,7.8,7.8v184.5c0,4.3-3.5,7.8-7.8,7.8H69
						c-4.3,0-7.8-3.5-7.8-7.8V275C61.2,270.7,64.7,267.2,69,267.2z"/>
					<g id="Group_94">
						
							<linearGradient id="Path_187_1_" gradientUnits="userSpaceOnUse" x1="-137.8616" y1="804.4396" x2="-137.8616" y2="804.1725" gradientTransform="matrix(53.441 0 0 -200.0949 7455.4092 158711.4688)">
							<stop  offset="0" style="stop-color:#F8B318"/>
							<stop  offset="0" style="stop-color:#EEB527"/>
							<stop  offset="0.32" style="stop-color:#FFEF79"/>
							<stop  offset="0.68" style="stop-color:#D99A13"/>
							<stop  offset="1" style="stop-color:#FFF083"/>
						</linearGradient>
						<path id="Path_187" fill="url(#Path_187_1_)" d="M62.8,275c0-3.5,3.1-6.3,7-6.3h36.3c3.9,0,7,2.8,7,6.3v184.5
							c0,3.5-3.1,6.3-7,6.3H69.8c-3.9,0-7-2.8-7-6.3V275 M61.2,275v184.5c0,4.3,3.8,7.8,8.6,7.8h36.3c4.7,0,8.6-3.5,8.6-7.8V275
							c0-4.3-3.8-7.8-8.6-7.8H69.8C65.1,267.2,61.2,270.7,61.2,275L61.2,275z"/>
					</g>
				</g>
			</g>
		</g>
		<path id="SVGID-4" fill="none" stroke="#707070" stroke-width="0.795" stroke-miterlimit="10" d="M105.1,414.7l-15.8-0.2
			c-1.5,0-2.7-1.3-2.7-2.8c0,0,0,0,0,0l0.7-63.3c0-2.3,0.1-4.5,0.1-6.7c0-1.5-1.1-2.8-2.7-2.8c-0.7,0-1.4,0.2-1.9,0.7l-0.1,0.1
			l-6.7,5.4c-1.2,1-2.9,0.8-3.9-0.4c0,0,0,0,0,0l-7.3-9.2c-0.9-1.2-0.7-2.9,0.4-3.9l24-19.1c0.5-0.4,1.1-0.6,1.7-0.6l15.2,0.2
			c1.5,0,2.7,1.3,2.7,2.8c0,0,0,0,0,0l-1,97C107.9,413.5,106.7,414.7,105.1,414.7C105.1,414.7,105.1,414.7,105.1,414.7L105.1,414.7z
			"/>
	</g>
	<path id="Path_188" fill="#817279" d="M36.7,392.6H23.8l-2.6,11.8H8.9l2.6-11.8H0v-11.9h14l2.2-10.1H5v-11.9h13.7l2.5-11.5h12.4
		L31,358.7h12.8l2.5-11.5h12.4l-2.5,11.5h9.6v11.9H53.8l-2.2,10.1h9.3v11.9H49.1l-2.6,11.8H34.1L36.7,392.6z M41.4,370.6H28.6
		l-2.2,10.1h12.8L41.4,370.6z"/>
	
		<linearGradient id="Path_189_1_" gradientUnits="userSpaceOnUse" x1="-139.2505" y1="787.1508" x2="-137.7605" y2="789.3568" gradientTransform="matrix(65.868 0 0 -57.274 9149.6748 45534.4766)">
		<stop  offset="0" style="stop-color:#F8B318"/>
		<stop  offset="0" style="stop-color:#EEB527"/>
		<stop  offset="0.32" style="stop-color:#FFEF79"/>
		<stop  offset="0.68" style="stop-color:#D99A13"/>
		<stop  offset="1" style="stop-color:#FFF083"/>
	</linearGradient>
	<path id="Path_189" fill="url(#Path_189_1_)" d="M40,392.6H27.1l-2.6,11.8H12.2l2.6-11.8H3.3v-11.9h14l2.2-10.1H8.2v-11.9h13.7
		l2.5-11.5h12.4l-2.5,11.5h12.8l2.5-11.5H62l-2.5,11.5h9.6v11.9H57.1l-2.2,10.1h9.3v11.9H52.4l-2.6,11.8H37.4L40,392.6z M44.7,370.6
		H31.8l-2.2,10.1h12.8L44.7,370.6z"/>
	<g id="Group_105">
		<g id="Group_103">
			<path id="Path_190" fill="#0090D3" d="M468.3,330.2h-4l-3.4-6.7h-2.5v6.7H455v-14.1c-0.1-1.1,0.2-2.1,0.9-2.9
				c0.9-0.7,2-1,3.1-0.9h2.9c1.6-0.1,3.1,0.5,4.1,1.6c1,1.1,1.6,2.6,1.5,4.1c0,1.1-0.3,2.2-0.9,3.1c-0.5,0.8-1.3,1.5-2.3,1.8
				L468.3,330.2z M463.4,319.9c0.5-0.5,0.7-1.2,0.7-1.9c0-0.7-0.2-1.4-0.7-1.9c-0.5-0.5-1.1-0.7-1.8-0.7h-1.7c-1,0-1.5,0.5-1.5,1.6
				v3.7h3.2C462.3,320.6,463,320.4,463.4,319.9L463.4,319.9z"/>
			<path id="Path_191" fill="#0090D3" d="M480.5,330.2h-2.1l-1-1.7l-3.4,1.9c-1.6,0.2-3.1-0.7-3.8-2.1c-0.3-0.7-0.6-1.5-0.7-2.2
				c-0.1-0.8-0.2-1.7-0.2-2.5c0-0.9,0-1.5,0-1.9c0-0.4,0.1-0.9,0.1-1.4c0-0.5,0.1-0.9,0.3-1.4c0.1-0.4,0.3-0.8,0.5-1.1
				c0.2-0.4,0.5-0.7,0.8-0.9c0.9-0.6,1.9-0.8,2.9-0.8h3.4l3.2-0.2L480.5,330.2z M477.3,325.6v-6.8h-2.4c-0.8-0.1-1.5,0.4-1.9,1.1
				c-0.4,1-0.6,2.1-0.5,3.2c-0.1,1,0.1,2,0.5,3c0.4,0.6,1.2,0.9,1.9,0.9L477.3,325.6z"/>
			<path id="Path_192" fill="#0090D3" d="M494.9,330.2h-3.2V321c0.1-0.6-0.1-1.2-0.5-1.7c-0.4-0.3-0.9-0.5-1.4-0.5l-2.9,1.2v10.1
				h-3.2v-14.4h2.4l0.7,1.7l3.9-1.9c1.1,0,2.1,0.4,2.9,1.3c0.9,1,1.3,2.3,1.2,3.7V330.2z"/>
			<path id="Path_193" fill="#0090D3" d="M510.2,330.2h-3.8l-3.7-5.1l-1.4,2v3.1h-3.2v-19h3.2v12l4.5-6.8h3.6l-4.6,6.5L510.2,330.2z
				"/>
			<path id="Path_194" fill="#0090D3" d="M522.4,323.8h-8.2c-0.1,1,0.1,2,0.6,2.9c0.6,0.7,1.5,1,2.4,0.9c0.7,0.1,1.3-0.2,1.7-0.8
				c0.3-0.4,0.5-0.9,0.6-1.5h2.9c0.1,1.5-0.4,2.9-1.4,4c-1,0.9-2.4,1.3-3.7,1.3c-1.2,0.1-2.5-0.2-3.6-0.7c-1.8-0.9-2.6-3.4-2.6-7.4
				c-0.2-1.9,0.4-3.7,1.5-5.2c1.2-1.2,2.9-1.8,4.6-1.7c3.6,0,5.3,2,5.3,6.1C522.5,322.2,522.4,322.8,522.4,323.8z M514.3,321.5h5.3
				c0.1-0.9-0.1-1.7-0.6-2.4c-0.5-0.5-1.2-0.8-1.9-0.8c-0.8,0-1.5,0.2-2,0.8C514.5,319.8,514.2,320.7,514.3,321.5z"/>
			<path id="Path_195" fill="#0090D3" d="M535.6,330.2h-2.1l-1-1.7l-3.4,1.9c-1.6,0.2-3.1-0.7-3.8-2.1c-0.3-0.7-0.6-1.5-0.7-2.2
				c-0.1-0.8-0.2-1.7-0.2-2.5c0-0.9,0-1.5,0-1.9c0-0.4,0.1-0.9,0.1-1.4c0-0.5,0.1-0.9,0.3-1.4c0.1-0.4,0.3-0.8,0.5-1.1
				c0.2-0.4,0.5-0.7,0.8-0.9c0.9-0.6,1.9-0.8,2.9-0.8h3.4v-4.7h3.2L535.6,330.2z M532.4,325.6v-6.8h-2.4c-0.8-0.1-1.5,0.4-1.9,1.1
				c-0.4,1-0.6,2.1-0.5,3.2c-0.1,1,0.1,2,0.5,3c0.4,0.6,1.2,0.9,1.9,0.9L532.4,325.6z"/>
			<path id="Path_196" fill="#0090D3" d="M550.9,330.3l-2.8,0c-1.1,0.1-2.1-0.3-2.8-1.1c-0.6-0.7-1-1.7-0.9-2.7v-15.2h3.2v6.4
				l3.8-1.8c1.2-0.1,2.4,0.3,3.2,1.2c0.7,1,1.1,2.3,1.1,3.5c0,0.7,0.1,1.5,0.1,2.5C555.8,327.8,554.2,330.3,550.9,330.3z
				 M548.4,327.4h1.6c1.8,0,2.7-1.5,2.7-4.4c0.1-1.1-0.1-2.1-0.4-3.1c-0.3-0.6-1-1-1.8-0.9l-2.9,1.6v5.7
				C547.6,326.9,547.8,327.3,548.4,327.4L548.4,327.4z"/>
			<path id="Path_197" fill="#0090D3" d="M568.9,315.8l-5.3,16c-0.2,0.6-0.5,1.2-1,1.7c-0.7,0.7-1.7,1.1-2.8,1h-1.5v-3h1
				c0.4,0,0.7-0.1,1-0.2c0.3-0.3,0.5-0.6,0.6-0.9l0.3-0.7l-4.2-13.9h3.4l2.5,10l2.7-10H568.9z"/>
		</g>
		<g id="g4272">
			<g id="g4987">
				<g id="g4338">
					<path id="path4340" fill="#111010" d="M537.8,385.6h8.1l-4-14.2l-0.1,0.1l-3.4,11.8L537.8,385.6z M562.9,402.4h-12.3l-0.1-0.4
						l-0.2-0.7l-1.7-6.4h-13.4l-2,6.5l-0.2,0.7l-0.1,0.4h-12.3l0.2-0.8l0.4-1.2l13.6-43l0.2-0.7l0.1-0.4h13.6l0.1,0.4l0.2,0.7
						l13.4,43l0.4,1.2L562.9,402.4z"/>
				</g>
				<g id="g4342">
					<g id="Group_104">
						<g id="g4344">
							<g id="g4350">
								<path id="path4352" fill="#111010" d="M576.6,376.4h5.3c5.2,0,6-2.1,6-5.2c0-3-0.7-5.1-6-5.1h-5.3V376.4z M576.6,402.3
									h-11.5v-46H582c5.1,0,9.2,1.1,12,3.4c3.1,2.4,4.7,6.5,4.7,11.5c0,5-1.7,9.5-4.7,11.8c-2.8,2.2-6.9,3.4-12,3.4h-5.4V402.3
									L576.6,402.3z"/>
							</g>
							<g id="g4354">
								<path id="path4356" fill="#0090D3" d="M490.5,375.5c1.3,0,2.5-0.6,3.4-1.5c1.9-1.9,1.8-5-0.1-6.8c-1.9-1.9-5-1.8-6.8,0.1
									c-0.9,0.9-1.4,2.1-1.4,3.3C485.6,373.3,487.8,375.5,490.5,375.5"/>
							</g>
							<g id="g4358">
								<path id="path4360" fill="#0090D3" d="M490.5,385.1c-2.7,0-4.9,2.1-4.9,4.8c0,2.7,2.2,4.9,4.9,4.9c1.3,0,2.5-0.6,3.4-1.5
									c1.9-1.9,1.9-4.9,0-6.8C493,385.6,491.8,385,490.5,385.1"/>
							</g>
							<g id="g4362">
								<path id="path4364" fill="#0090D3" d="M475.9,375.5c1.3,0,2.5-0.6,3.4-1.5c1.9-1.9,1.8-5-0.1-6.8c-1.9-1.9-5-1.8-6.8,0.1
									c-0.9,0.9-1.4,2.1-1.4,3.3C471.1,373.3,473.2,375.5,475.9,375.5"/>
							</g>
							<g id="g4366">
								<path id="path4368" fill="#0090D3" d="M475.9,385.1c-2.7,0-4.9,2.1-4.9,4.8c0,2.7,2.2,4.9,4.9,4.9c1.3,0,2.5-0.6,3.4-1.5
									c1.9-1.9,1.9-4.9,0-6.8C478.4,385.6,477.2,385.1,475.9,385.1"/>
							</g>
							<g id="g4370">
								<path id="path4372" fill="#111010" d="M477.9,353.3c-9.9,3-12.3,11.4-15.1,20.1c-3,9.4-5,17.7,0.9,24.3l-1.7,1.5
									c-8.8-8.9-10.8-18.6-7.7-28.4c3.8-12.1,12.2-18,23-20.1L477.9,353.3z"/>
							</g>
							<g id="g4374">
								<path id="path4376" fill="#111010" d="M503.5,361.1c7.6,7.9,11,17.6,7.1,29.6c-3.1,9.8-10.4,16.6-22.7,18.8l-0.5-2.2
									c8.6-2,11.9-10,14.8-19.3c2.8-8.8,5.7-17-0.6-25.1L503.5,361.1z"/>
							</g>
							<g id="g4378">
								<path id="path4380" fill="#111010" d="M602.9,402.4v-45.2h6.6l15,22.9c3.1,4.7,5.9,9.6,8.4,14.7l0.1-0.1
									c-0.6-6-0.7-11.5-0.7-18.6v-18.9h5.7v45.2h-6.1l-14.8-23c-3.2-4.9-6.1-9.9-8.7-15.1l-0.2,0.1c0.3,5.7,0.5,11.1,0.5,18.7
									v19.3L602.9,402.4z"/>
							</g>
							<path id="path4382" fill="#111010" d="M652.2,402.4h-6v-45.2h6V402.4z"/>
							<g id="g4384">
								<path id="path4386" fill="#111010" d="M691.2,396.3c-3,1.2-6.2,1.8-9.4,1.7c-10.6,0-17.5-7.5-17.5-18.8
									c0-10.3,6.8-17.7,16.4-17.7c3.5-0.1,7,0.8,10,2.7l1.5-5.1c-0.9-0.5-1.8-0.9-2.8-1.2c-2.7-1-5.6-1.5-8.5-1.5
									c-12.9,0-22.7,10-22.7,23.2c0,13.9,9.7,23.7,23.3,23.7c2.1,0,4.2-0.2,6.2-0.8c1.6-0.4,3.2-0.9,4.7-1.6L691.2,396.3z"/>
							</g>
						</g>
					</g>
				</g>
			</g>
		</g>
	</g>
	<g id="Group_110">
		<g id="Group_109">
			<g id="Group_108">
				
					<linearGradient id="Path_198_1_" gradientUnits="userSpaceOnUse" x1="-138.4805" y1="787.6199" x2="-138.2455" y2="790.7639" gradientTransform="matrix(66.21 0 0 -67.8 9218.9209 53549.75)">
					<stop  offset="0" style="stop-color:#9F097C"/>
					<stop  offset="0.281" style="stop-color:#C7034D"/>
					<stop  offset="0.483" style="stop-color:#E10031"/>
					<stop  offset="0.78" style="stop-color:#E72732"/>
					<stop  offset="1" style="stop-color:#EB4033"/>
				</linearGradient>
				<path id="Path_198" fill="url(#Path_198_1_)" d="M81.6,15.3h8.9l-8.6,67.8h-9.3l6.4-50.8l0.1,3L57.6,73.7H51l-12-37.4l1-3.9
					l-6.4,50.8h-9.3l8.6-67.8h8.9L56,60.1L81.6,15.3z"/>
				
					<linearGradient id="Path_199_1_" gradientUnits="userSpaceOnUse" x1="-137.8705" y1="787.6475" x2="-137.5635" y2="790.7285" gradientTransform="matrix(50.7108 0 0 -69.2137 7109.3145 54670.0664)">
					<stop  offset="0" style="stop-color:#9F097C"/>
					<stop  offset="0.281" style="stop-color:#C7034D"/>
					<stop  offset="0.483" style="stop-color:#E10031"/>
					<stop  offset="0.78" style="stop-color:#E72732"/>
					<stop  offset="1" style="stop-color:#EB4033"/>
				</linearGradient>
				<path id="Path_199" fill="url(#Path_199_1_)" d="M109,80.7c-3.3-2-5.9-5.1-7.3-8.8c-1.5-4.2-2-8.7-1.3-13.1l2.4-19.2
					c0.5-4.7,2.1-9.2,4.6-13.1c2.4-3.7,5.6-6.7,9.5-8.8c4-2.1,8.4-3.2,12.9-3.1c4.2-0.1,8.4,0.9,12.1,3.1c3.3,2,5.9,5.1,7.3,8.8
					c1.5,4.2,2,8.7,1.3,13.1l-2.4,19.2c-0.5,4.7-2.1,9.2-4.6,13.1c-2.4,3.7-5.6,6.7-9.5,8.8c-4,2.1-8.4,3.2-12.9,3.1
					C116.8,83.9,112.6,82.9,109,80.7L109,80.7z M129.9,72.6c2.3-1.3,4.2-3.1,5.6-5.4c1.5-2.4,2.5-5.2,2.8-8l2.5-19.9
					c0.4-2.7,0.2-5.5-0.7-8c-0.8-2.2-2.3-4.1-4.3-5.4c-2.2-1.3-4.6-2-7.2-1.9c-2.7,0-5.3,0.6-7.6,1.9c-2.3,1.3-4.2,3.1-5.6,5.4
					c-1.5,2.4-2.5,5.2-2.8,8l-2.5,19.9c-0.4,2.7-0.2,5.5,0.7,8c0.8,2.2,2.3,4.1,4.3,5.4c2.2,1.3,4.6,2,7.2,1.9
					C124.9,74.5,127.5,73.8,129.9,72.6L129.9,72.6z"/>
				
					<linearGradient id="Path_200_1_" gradientUnits="userSpaceOnUse" x1="-138.077" y1="787.5873" x2="-137.795" y2="790.6683" gradientTransform="matrix(54.906 0 0 -69.2085 7756.0308 54665.9492)">
					<stop  offset="0" style="stop-color:#9F097C"/>
					<stop  offset="0.281" style="stop-color:#C7034D"/>
					<stop  offset="0.483" style="stop-color:#E10031"/>
					<stop  offset="0.78" style="stop-color:#E72732"/>
					<stop  offset="1" style="stop-color:#EB4033"/>
				</linearGradient>
				<path id="Path_200" fill="url(#Path_200_1_)" d="M169.6,82.9c-2.7-0.6-5.4-1.5-7.8-2.8c-2.4-1.2-4.6-2.8-6.5-4.7l6.8-7.3
					c2.3,2.2,4.9,3.9,7.9,5c3.2,1.2,6.5,1.7,9.9,1.7c4.9,0,8.8-0.9,11.8-2.7c2.8-1.6,4.7-4.5,5-7.7l0,0c0.4-1.9,0-4-1.1-5.6
					c-1.1-1.4-2.6-2.5-4.4-3.1c-2.4-0.8-4.8-1.4-7.3-1.8c-0.1,0-0.2,0-0.3,0c-0.1,0-0.2,0-0.3,0l-0.7-0.1c-3.6-0.6-7.2-1.5-10.7-2.6
					c-2.7-1-5.1-2.9-6.6-5.4c-1.7-2.6-2.2-6.3-1.6-11.1l0,0c0.4-3.9,1.9-7.6,4.2-10.7c2.4-3,5.5-5.4,9.1-6.8
					c4.2-1.6,8.8-2.4,13.3-2.3c2.4,0,4.7,0.3,7.1,0.8c2.3,0.5,4.5,1.3,6.6,2.4c2.2,1.1,4.3,2.4,6.2,3.9l-6.4,7.6
					c-2.2-1.8-4.6-3.2-7.2-4.3c-2.4-0.9-5-1.4-7.5-1.4c-4.6,0-8.3,0.9-11.1,2.8c-2.7,1.7-4.5,4.6-4.8,7.9l0,0
					c-0.4,1.9,0.1,3.9,1.3,5.5c1.2,1.4,2.8,2.4,4.6,3c2.6,0.8,5.3,1.5,8,2c0.1,0,0.2,0.1,0.3,0.1c0.1,0,0.2,0,0.3,0.1
					c0.2,0,0.3,0.1,0.5,0.1s0.3,0.1,0.5,0.1c3.4,0.7,6.7,1.7,9.9,3c2.6,1.1,4.8,3.1,6.2,5.6c1.5,2.6,2,6.1,1.4,10.5l0,0.1
					c-0.4,3.9-1.9,7.5-4.3,10.6c-2.5,3-5.7,5.4-9.4,6.7c-4.4,1.6-9.1,2.4-13.7,2.3C175.7,83.8,172.6,83.5,169.6,82.9z"/>
				
					<linearGradient id="Path_201_1_" gradientUnits="userSpaceOnUse" x1="-137.8332" y1="787.4267" x2="-137.5162" y2="790.5707" gradientTransform="matrix(48.985 0 0 -67.796 6981.3008 53546.5664)">
					<stop  offset="0" style="stop-color:#9F097C"/>
					<stop  offset="0.281" style="stop-color:#C7034D"/>
					<stop  offset="0.483" style="stop-color:#E10031"/>
					<stop  offset="0.78" style="stop-color:#E72732"/>
					<stop  offset="1" style="stop-color:#EB4033"/>
				</linearGradient>
				<path id="Path_201" fill="url(#Path_201_1_)" d="M216.6,15.3h47.8l-1.1,9h-47.8L216.6,15.3z M235,20.9h9.5l-7.9,62.2h-9.5
					L235,20.9z"/>
				<g id="Group_106">
					
						<linearGradient id="Path_202_1_" gradientUnits="userSpaceOnUse" x1="-138.6252" y1="790.968" x2="-138.6252" y2="789.556" gradientTransform="matrix(75.2067 0 0 -92.9556 10476.6904 73572.5234)">
						<stop  offset="0" style="stop-color:#9F097C"/>
						<stop  offset="0.281" style="stop-color:#C7034D"/>
						<stop  offset="0.483" style="stop-color:#E10031"/>
						<stop  offset="0.78" style="stop-color:#E72732"/>
						<stop  offset="1" style="stop-color:#EB4033"/>
					</linearGradient>
					<path id="Path_202" fill="url(#Path_202_1_)" d="M85.1,124.6c1.8-2.9,3-6.2,3.4-9.6c0.7-5.3,0.1-9.8-1.6-13.6
						c-1.8-3.8-4.8-6.9-8.6-8.6c-4-2-9-3-15-3H25.3l-11.8,92.9h39c5.4,0.1,10.8-0.9,15.8-3c4.4-1.8,8.1-4.8,10.9-8.7
						c2.8-4.1,4.6-8.8,5.1-13.7l0-0.2c0.6-3.6,0.2-7.3-0.9-10.8c-1.1-3-3.1-5.7-5.7-7.6c-3-2.1-6.4-3.3-10-3.7
						c3.6-0.5,7.1-1.8,10.3-3.6C80.9,129.7,83.3,127.4,85.1,124.6L85.1,124.6z M67,154.6l0,0.2c-0.3,3.2-1.8,6.1-4.3,8.1
						c-2.4,1.9-5.7,2.9-9.7,2.9H33.2l2.8-22.4h19.8c2.3-0.1,4.6,0.4,6.6,1.3c1.7,0.8,3,2.1,3.8,3.8C67.1,150.5,67.4,152.5,67,154.6
						L67,154.6z M70.7,116.1c-0.3,3-1.7,5.8-4,7.7c-2.5,1.9-5.6,2.9-8.8,2.7H38.2l2.5-19.9h19.8c3.6,0,6.3,0.8,8.1,2.5
						C70.4,110.8,71.1,113.1,70.7,116.1L70.7,116.1z"/>
					
						<linearGradient id="Path_203_1_" gradientUnits="userSpaceOnUse" x1="-138.7848" y1="790.9677" x2="-138.7848" y2="789.5557" gradientTransform="matrix(82.204 0 0 -92.947 11536.9424 73565.7266)">
						<stop  offset="0" style="stop-color:#9F097C"/>
						<stop  offset="0.281" style="stop-color:#C7034D"/>
						<stop  offset="0.483" style="stop-color:#E10031"/>
						<stop  offset="0.78" style="stop-color:#E72732"/>
						<stop  offset="1" style="stop-color:#EB4033"/>
					</linearGradient>
					<path id="Path_203" fill="url(#Path_203_1_)" d="M134.5,89.8l-47.3,92.9H106l7.1-14.9h34.1l3.3,14.9h18.9l-23.8-92.9H134.5z
						 M121.2,150.9l15.1-31.7l7.1,31.7H121.2z"/>
					
						<linearGradient id="Path_204_1_" gradientUnits="userSpaceOnUse" x1="-138.8006" y1="790.967" x2="-138.8006" y2="789.553" gradientTransform="matrix(82.972 0 0 -92.883 11738.9521 73514.9766)">
						<stop  offset="0" style="stop-color:#9F097C"/>
						<stop  offset="0.281" style="stop-color:#C7034D"/>
						<stop  offset="0.483" style="stop-color:#E10031"/>
						<stop  offset="0.78" style="stop-color:#E72732"/>
						<stop  offset="1" style="stop-color:#EB4033"/>
					</linearGradient>
					<path id="Path_204" fill="url(#Path_204_1_)" d="M238.5,157.8l-24.4-68.1h-21.4l-11.8,92.9h16.7l8.5-67l24.4,67h21.5l11.8-92.9
						h-16.7L238.5,157.8z"/>
					
						<linearGradient id="Path_205_1_" gradientUnits="userSpaceOnUse" x1="-138.6276" y1="790.9677" x2="-138.6276" y2="789.5557" gradientTransform="matrix(75.3051 0 0 -92.947 10749.5752 73565.7266)">
						<stop  offset="0" style="stop-color:#9F097C"/>
						<stop  offset="0.281" style="stop-color:#C7034D"/>
						<stop  offset="0.483" style="stop-color:#E10031"/>
						<stop  offset="0.78" style="stop-color:#E72732"/>
						<stop  offset="1" style="stop-color:#EB4033"/>
					</linearGradient>
					<path id="Path_205" fill="url(#Path_205_1_)" d="M334.4,93.7c-5.1-2.6-11.6-3.9-19.4-3.9h-30.7l-11.8,92.9h30.7
						c8,0,14.9-1.4,20.7-4.2c5.6-2.5,10.4-6.6,13.8-11.6c3.5-5.3,5.7-11.3,6.3-17.5l3.3-26.3c0.9-7,0.2-13-2-18
						C343.3,100.1,339.3,96,334.4,93.7z M329.4,122.6l-3.5,27.4c-0.6,5.1-2.7,9-6.2,11.8s-8.1,4.2-13.9,4.2h-13.6l7.5-59.2h13.6
						c5.8,0,10,1.4,12.8,4.2C329,113.6,330,117.5,329.4,122.6L329.4,122.6z"/>
					
						<linearGradient id="Path_206_1_" gradientUnits="userSpaceOnUse" x1="-139.2131" y1="790.9677" x2="-139.2131" y2="789.5557" gradientTransform="matrix(109.567 0 0 -92.947 15668.6064 73565.7266)">
						<stop  offset="0" style="stop-color:#9F097C"/>
						<stop  offset="0.281" style="stop-color:#C7034D"/>
						<stop  offset="0.483" style="stop-color:#E10031"/>
						<stop  offset="0.78" style="stop-color:#E72732"/>
						<stop  offset="1" style="stop-color:#EB4033"/>
					</linearGradient>
					<path id="Path_206" fill="url(#Path_206_1_)" d="M452.2,89.8l-19.8,62l-9.9-62h-14.1l-25.6,62l-4.1-62h-18l9.6,92.9h16.5
						l25.5-64.9l8.3,64.9H437l33.2-92.9H452.2z"/>
					
						<linearGradient id="Path_207_1_" gradientUnits="userSpaceOnUse" x1="-135.7881" y1="790.9677" x2="-135.7881" y2="789.5557" gradientTransform="matrix(29.924 0 0 -92.947 4546.9707 73565.7266)">
						<stop  offset="0" style="stop-color:#9F097C"/>
						<stop  offset="0.281" style="stop-color:#C7034D"/>
						<stop  offset="0.483" style="stop-color:#E10031"/>
						<stop  offset="0.78" style="stop-color:#E72732"/>
						<stop  offset="1" style="stop-color:#EB4033"/>
					</linearGradient>
					<path id="Path_207" fill="url(#Path_207_1_)" d="M468.7,182.7h18.2l11.8-92.9h-18.2L468.7,182.7z"/>
					
						<linearGradient id="Path_208_1_" gradientUnits="userSpaceOnUse" x1="-138.6277" y1="790.9677" x2="-138.6277" y2="789.5557" gradientTransform="matrix(75.3104 0 0 -92.947 10983.7861 73565.7266)">
						<stop  offset="0" style="stop-color:#9F097C"/>
						<stop  offset="0.281" style="stop-color:#C7034D"/>
						<stop  offset="0.483" style="stop-color:#E10031"/>
						<stop  offset="0.78" style="stop-color:#E72732"/>
						<stop  offset="1" style="stop-color:#EB4033"/>
					</linearGradient>
					<path id="Path_208" fill="url(#Path_208_1_)" d="M567.9,93.7c-5.1-2.6-11.6-3.9-19.4-3.9h-30.7L506,182.7h30.7
						c8,0,14.9-1.4,20.7-4.2c5.6-2.5,10.4-6.6,13.8-11.6c3.5-5.3,5.7-11.3,6.3-17.5l3.3-26.3c0.9-7,0.2-13-2-18
						C576.7,100.1,572.8,96,567.9,93.7z M562.9,122.6l-3.5,27.4c-0.6,5.1-2.7,9-6.2,11.8s-8.1,4.2-13.9,4.2h-13.6l7.5-59.2h13.6
						c5.8,0,10,1.4,12.8,4.2S563.5,117.5,562.9,122.6z"/>
					
						<linearGradient id="Path_209_1_" gradientUnits="userSpaceOnUse" x1="-138.4937" y1="790.9677" x2="-138.4937" y2="789.5557" gradientTransform="matrix(70.279 0 0 -92.947 10357.1152 73565.7266)">
						<stop  offset="0" style="stop-color:#9F097C"/>
						<stop  offset="0.281" style="stop-color:#C7034D"/>
						<stop  offset="0.483" style="stop-color:#E10031"/>
						<stop  offset="0.78" style="stop-color:#E72732"/>
						<stop  offset="1" style="stop-color:#EB4033"/>
					</linearGradient>
					<path id="Path_209" fill="url(#Path_209_1_)" d="M659.1,89.8h-68.1l-2.1,16.9h25.3l-9.6,76.1H622l9.6-76.1h25.3L659.1,89.8z"/>
					
						<linearGradient id="Path_210_1_" gradientUnits="userSpaceOnUse" x1="-138.7412" y1="790.9677" x2="-138.7412" y2="789.5557" gradientTransform="matrix(80.167 0 0 -92.947 11820.0625 73565.7266)">
						<stop  offset="0" style="stop-color:#9F097C"/>
						<stop  offset="0.281" style="stop-color:#C7034D"/>
						<stop  offset="0.483" style="stop-color:#E10031"/>
						<stop  offset="0.78" style="stop-color:#E72732"/>
						<stop  offset="1" style="stop-color:#EB4033"/>
					</linearGradient>
					<path id="Path_210" fill="url(#Path_210_1_)" d="M720.2,89.8l-4.9,38.4h-33.4l4.9-38.4h-17.5l-11.8,92.9H675l4.8-37.7h33.4
						l-4.8,37.7h17.5l11.8-92.9H720.2z"/>
				</g>
				<g id="Group_107">
					<path id="Path_211" fill="#6F1049" d="M15.7,217.3c0.3-3,1.3-5.8,2.8-8.4c1.4-2.3,3.3-4.2,5.6-5.6c2.3-1.3,4.9-2,7.5-2
						c4,0,7.7,1.9,10,5.2c1.2,1.7,2,3.6,2.2,5.7h9.7c-0.2-3.7-1.3-7.4-3.1-10.6c-1.7-3-4.3-5.4-7.3-7.1c-3.2-1.7-6.8-2.6-10.4-2.5
						c-4.5-0.1-8.9,1-12.8,3.1c-3.8,2.1-7.1,5.2-9.4,8.9c-2.5,4-4.1,8.6-4.6,13.3l-2.4,18.6c-0.7,4.5-0.3,9,1.3,13.3
						c1.3,3.7,3.9,6.8,7.2,8.9c3.6,2.2,7.8,3.3,12,3.1c3.8,0,7.6-0.8,11-2.5c3.5-1.7,6.6-4.1,9.1-7.1c2.6-3.1,4.6-6.7,5.8-10.6h-9.7
						c-0.8,2.2-2.1,4.2-3.7,5.9c-1.5,1.6-3.3,2.9-5.3,3.7c-1.9,0.8-3.9,1.3-6,1.3c-2.5,0.1-4.9-0.6-7-2c-2-1.4-3.4-3.3-4.1-5.6
						c-0.9-2.7-1.1-5.6-0.7-8.4L15.7,217.3z"/>
					<path id="Path_212" fill="#6F1049" d="M102.3,195.1c-3.7-2.2-7.9-3.2-12.1-3.1c-4.5-0.1-8.9,1-12.9,3.1
						c-3.9,2.1-7.1,5.1-9.5,8.8c-2.5,4-4.1,8.5-4.6,13.1l-2.4,19.2c-0.7,4.4-0.2,8.9,1.3,13.1c1.4,3.6,3.9,6.7,7.3,8.8
						c3.7,2.2,7.9,3.2,12.1,3.1c4.5,0.1,8.9-1,12.9-3.1c3.9-2.1,7.1-5.1,9.5-8.8c2.5-4,4.1-8.5,4.6-13.1l2.4-19.2
						c0.7-4.4,0.2-8.9-1.3-13.1C108.2,200.2,105.6,197.1,102.3,195.1L102.3,195.1z M101.1,216.6l-2.5,19.9c-0.3,2.9-1.3,5.6-2.8,8
						c-1.4,2.2-3.3,4.1-5.6,5.4c-2.3,1.3-5,1.9-7.6,1.9c-2.5,0.1-5-0.6-7.1-1.9c-2-1.3-3.5-3.2-4.3-5.4c-0.9-2.6-1.2-5.3-0.7-8
						l2.5-19.9c0.3-2.9,1.3-5.6,2.8-8c1.4-2.2,3.3-4.1,5.6-5.4c2.3-1.3,5-1.9,7.6-1.9c2.5-0.1,5,0.6,7.2,1.9c2,1.3,3.5,3.2,4.3,5.4
						C101.3,211.2,101.6,213.9,101.1,216.6L101.1,216.6z"/>
					<path id="Path_213" fill="#6F1049" d="M162.6,243.3L137,192.7h-8.6l-8.6,67.8h9.4l6.3-49.9l25.6,49.9h8.7l8.6-67.8H169
						L162.6,243.3z"/>
					<path id="Path_214" fill="#6F1049" d="M201.3,211.6c0.3-3.2,2.1-6.1,4.8-7.9c2.8-1.8,6.5-2.8,11.1-2.8c2.6,0,5.1,0.5,7.5,1.4
						c2.6,1,5,2.5,7.2,4.3l6.4-7.6c-1.9-1.5-4-2.9-6.2-3.9c-2.1-1-4.4-1.8-6.6-2.4c-2.3-0.5-4.7-0.8-7.1-0.8
						c-4.5-0.1-9.1,0.7-13.3,2.3c-3.6,1.4-6.7,3.7-9.1,6.8c-2.3,3.1-3.8,6.9-4.2,10.7l0,0c-0.6,4.8-0.1,8.5,1.6,11.1
						c1.5,2.5,3.9,4.4,6.6,5.4c3.5,1.2,7.1,2.1,10.7,2.6l0.7,0.1c0.1,0,0.2,0,0.3,0c0.1,0,0.2,0,0.3,0c2.5,0.4,4.9,1,7.3,1.8
						c1.7,0.6,3.2,1.6,4.4,3.1c1.1,1.6,1.5,3.7,1.1,5.6l0,0c-0.4,3.2-2.2,6.1-5,7.7c-2.9,1.8-6.9,2.7-11.8,2.7
						c-3.4,0-6.7-0.5-9.9-1.7c-3-1.1-5.6-2.8-7.9-5l-6.8,7.3c1.9,1.8,4.1,3.4,6.5,4.7c2.5,1.3,5.1,2.2,7.8,2.8c3,0.6,6.1,1,9.2,0.9
						c4.7,0.1,9.3-0.7,13.7-2.3c3.7-1.4,6.9-3.7,9.4-6.7c2.4-3.1,3.9-6.7,4.3-10.6l0-0.1c0.6-4.4,0.1-7.9-1.4-10.5
						c-1.4-2.5-3.6-4.4-6.2-5.6c-3.2-1.3-6.5-2.3-9.9-3c-0.2,0-0.3-0.1-0.5-0.1s-0.4-0.1-0.5-0.1c-0.1,0-0.2-0.1-0.3-0.1
						c-0.1,0-0.2,0-0.3-0.1c-2.7-0.5-5.4-1.2-8-2c-1.8-0.6-3.3-1.6-4.6-3C201.4,215.5,200.9,213.5,201.3,211.6L201.3,211.6z"/>
					<path id="Path_215" fill="#6F1049" d="M283.9,236.3c-0.6,4.9-2.4,8.8-5.2,11.5c-3,2.8-7,4.2-11.1,4.1c-4.5,0-7.9-1.4-10-4.1
						c-2.1-2.7-2.9-6.5-2.3-11.5l5.5-43.6h-9.5l-5.5,43.3c-0.7,5.3-0.3,9.9,1.1,13.6c1.3,3.6,3.8,6.7,7,8.6c3.3,2,7.5,3,12.5,3
						c4.6,0.1,9.2-0.9,13.3-3c3.8-2,7-5,9.3-8.6c2.5-4.2,4-8.8,4.5-13.6l5.5-43.3h-9.5L283.9,236.3z"/>
					<path id="Path_216" fill="#6F1049" d="M337,237.4l-14.2-44.8h-8.9l-8.6,67.8h9.3l5.8-45.8l11.6,36.4h6.6l20.9-37.3l-5.9,46.7
						h9.3l8.6-67.8h-8.9L337,237.4z"/>
					<path id="Path_217" fill="#6F1049" d="M392.8,192.7h-4.6l-8.6,67.8h43.5l1.1-9h-34l2.5-20.1h28.9l1.1-9H394l2.6-20.6h34l1.1-9
						L392.8,192.7L392.8,192.7z"/>
					<path id="Path_218" fill="#6F1049" d="M488.1,203.8c-1.5-3.6-4.3-6.5-7.8-8.3c-3.6-1.9-8.1-2.8-13.6-2.8h-21.5l-8.6,67.8h21.4
						c4.9,0.1,9.8-0.9,14.3-2.8c4-1.8,7.4-4.7,9.9-8.3c2.6-3.9,4.2-8.5,4.7-13.1l2.4-19.2C490.1,211.8,489.7,207.4,488.1,203.8z
						 M479.8,216.6l-2.5,20c-0.6,4.7-2.4,8.4-5.5,11c-3.1,2.6-7.1,3.9-12.1,3.9h-12.3l6.3-49.7h12.3c5,0,8.7,1.3,11.1,3.9
						S480.4,211.9,479.8,216.6L479.8,216.6z"/>
				</g>
			</g>
		</g>
		<line id="Line_7" fill="none" stroke="#707070" stroke-miterlimit="10" x1="740.3" y1="74.4" x2="264.6" y2="74.4"/>
		<line id="Line_8" fill="none" stroke="#707070" stroke-miterlimit="10" x1="479" y1="273" x2="11.4" y2="273"/>
		<line id="Line_9" fill="none" stroke="#707070" stroke-miterlimit="10" x1="267.7" y1="0.5" x2="112.1" y2="0.5"/>
		<line id="Line_10" fill="none" stroke="#707070" stroke-miterlimit="10" x1="726.7" y1="198.9" x2="618.6" y2="198.9"/>
	</g>
</g>
</svg>
